<svg width="101" height="100" viewBox="0 0 101 100" fill="none" xmlns="http://www.w3.org/2000/svg">
<circle cx="50.5" cy="50" r="50" fill="#304078"/>
<path fill-rule="evenodd" clip-rule="evenodd" d="M35.5 31H65.5C68.9795 31 71.5 33.5119 71.5 37V58C71.5 61.4882 68.9795 65 65.5 65H54.5V69H62.5C63.0798 69 63.5 69.4187 63.5 70C63.5 70.5813 63.0798 71 62.5 71H38.5C37.9201 71 37.5 70.5813 37.5 70C37.5 69.4187 37.9201 69 38.5 69H46.5V65H35.5C32.0206 65 29.5 61.4882 29.5 58V37C29.5 33.5119 32.0206 31 35.5 31ZM48.5 69H52.5V65H48.5V69ZM65.5 63H35.5C33.1804 63 31.5 60.3255 31.5 58V37C31.5 34.6746 33.1804 33 35.5 33H65.5C67.8197 33 69.5 34.6746 69.5 37V58C69.5 60.3255 67.8197 63 65.5 63Z" fill="white"/>
<path fill-rule="evenodd" clip-rule="evenodd" d="M49.5 42L40.5 45C40.1704 45.1094 39.5 45.654 39.5 46C39.5 46.3461 40.1704 46.8907 40.5 47L49.5 50C49.9275 50.1419 50.0725 50.1419 50.5 50L59.5 47C59.8296 46.8907 60.5 46.3461 60.5 46C60.5 45.654 59.8296 45.1094 59.5 45L50.5 42C50.0725 41.858 49.9275 41.858 49.5 42ZM39.5 43C38.3197 43.3918 37.5 44.7609 37.5 46C37.5 47.2391 38.3197 48.6083 39.5 49L48.5 52C49.3554 52.2838 50.6446 52.2838 51.5 52L60.5 49C61.6804 48.6083 62.5 47.2391 62.5 46C62.5 44.7609 61.6804 43.3918 60.5 43L51.5 40C50.6446 39.7161 49.3554 39.7161 48.5 40L39.5 43Z" fill="white"/>
<path fill-rule="evenodd" clip-rule="evenodd" d="M41.5 52V48H43.5V52C43.5 52.4232 44.088 52.8514 44.5 53L50.5 55C50.739 55.0861 51.261 55.0861 51.5 55L57.5 53C57.9119 52.8514 58.5 52.4232 58.5 52V48H60.5V52C60.5 53.2698 59.7358 54.5541 58.5 55L52.5 57C51.7831 57.2585 50.2169 57.2585 49.5 57L43.5 55C42.2641 54.5541 41.5 53.2698 41.5 52Z" fill="white"/>
<path fill-rule="evenodd" clip-rule="evenodd" d="M51.4997 46C51.6743 45.4357 51.9757 44.8119 52.4997 45L59.4997 47V58C59.4997 58.5947 59.0519 59 58.4997 59C57.9475 59 57.4997 58.5947 57.4997 58V49L52.4997 47C51.9757 46.812 51.3249 46.5643 51.4997 46Z" fill="white"/>
</svg>
