<svg width="101" height="100" viewBox="0 0 101 100" fill="none" xmlns="http://www.w3.org/2000/svg">
<circle cx="50.5" cy="50" r="50" fill="#304078"/>
<g clip-path="url(#clip0_213_2644)">
<path d="M28.5 63C27.9173 63 27.5 62.5827 27.5 62V30C27.5 27.0909 29.5909 25 32.5 25H45.5C46.0827 25 46.5 25.4173 46.5 26C46.5 26.5827 46.0827 27 45.5 27H32.5C30.7541 27 29.5 28.2541 29.5 30V62C29.5 62.5827 29.0827 63 28.5 63Z" fill="white"/>
<path d="M64.5 66H51.5C50.9173 66 50.5 65.552 50.5 65C50.5 64.448 50.9173 64 51.5 64H63.5V58H32.5C30.7541 58 29.5 59.346 29.5 61C29.5 62.654 30.7541 64 32.5 64H41.5C42.0827 64 42.5 64.448 42.5 65C42.5 65.552 42.0827 66 41.5 66H32.5C29.5909 66 27.5 63.756 27.5 61C27.5 58.244 29.5909 56 32.5 56H64.5C65.0827 56 65.5 56.448 65.5 57V65C65.5 65.552 65.0827 66 64.5 66Z" fill="white"/>
<path d="M52.5 75C52.2595 75 51.6972 75.1543 51.5 75L47.5 71L42.5 75C42.175 75.2571 41.877 75.1779 41.5 75C41.1252 74.8221 40.5 74.4114 40.5 74V61C40.5 60.4086 40.902 60 41.5 60C42.098 60 42.5 60.4086 42.5 61V72L46.5 69C46.8965 68.6871 47.1035 68.6871 47.5 69L51.5 72V61C51.5 60.4086 51.902 60 52.5 60C53.098 60 53.5 60.4086 53.5 61V74C53.5 74.4114 52.8748 74.82 52.5 75C52.6603 75 52.3505 75.0707 52.5 75Z" fill="white"/>
<path d="M55.5 62H36.5C35.9204 62 35.5 61.552 35.5 61C35.5 60.448 35.9204 60 36.5 60H55.5C56.0796 60 56.5 60.448 56.5 61C56.5 61.552 56.0796 62 55.5 62Z" fill="white"/>
<path d="M60.5 52C53.0563 52 46.5 46.4437 46.5 39C46.5 31.5563 53.0563 25 60.5 25C67.9437 25 73.5 31.5563 73.5 39C73.5 46.4437 67.9437 52 60.5 52ZM60.5 27C54.2007 27 48.5 32.7007 48.5 39C48.5 45.2993 54.2007 50 60.5 50C66.7993 50 71.5 45.2993 71.5 39C71.5 32.7007 66.7993 27 60.5 27Z" fill="white"/>
<path d="M63.4997 45C63.2437 45 62.6956 45.2089 62.4997 45L58.4997 40C58.3137 39.7975 58.4997 40.2865 58.4997 40V32C58.4997 31.4055 58.9477 31 59.4997 31C60.0516 31 60.4997 31.4055 60.4997 32V39L64.4997 43C64.8896 43.42 64.8896 44.58 64.4997 45C64.3037 45.2089 63.7556 45 63.4997 45Z" fill="white"/>
</g>
<defs>
<clipPath id="clip0_213_2644">
<rect width="50" height="50" fill="white" transform="translate(25.5 25)"/>
</clipPath>
</defs>
</svg>
