<svg width="101" height="100" viewBox="0 0 101 100" fill="none" xmlns="http://www.w3.org/2000/svg">
<circle cx="50.5" cy="50" r="50" fill="#304078"/>
<path d="M69.5 26H45.5C42.9789 26 40.5 27.5203 40.5 30V36L38.5 38C38.0313 36.8443 36.574 35.5982 35.5 35C36.6811 34.1706 37.5 32.533 37.5 31C37.5 28.4801 35.0619 27 32.5 27C29.9381 27 28.5 28.4801 28.5 31C28.5 32.5327 29.3193 34.1706 30.5 35C28.8363 35.9272 27.5 37.9888 27.5 40V51C27.5 52.0154 28.4676 53 29.5 53H36.5C37.5325 53 38.5 52.0154 38.5 51V43L40.5 42V43C40.5 45.4797 42.9789 48 45.5 48H69.5C72.0211 48 74.5 45.4797 74.5 43V30C74.5 27.5203 72.0211 26 69.5 26ZM29.5 31C29.5 29.3339 30.8061 28 32.5 28C34.1939 28 36.5 29.3339 36.5 31C36.5 32.6661 34.1938 34 32.5 34C30.8062 34 29.5 32.6661 29.5 31ZM36.5 52H29.5C29.3383 52 29.5 51.1589 29.5 51V40C29.5 37.8799 30.3445 36 32.5 36C34.3676 36 36.1438 37.1941 36.5 39L37.5 40L41.5 38C41.4993 38.0004 41.5007 37.9996 41.5 38L42.5 37C43.383 36.55 43.4503 37.9057 43.5 38C43.5787 38.1492 44.3639 38.5594 43.5 39L36.5 42L34.5 43C34.258 43.1234 34.7717 43.0869 34.5 43C34.2372 42.9159 33.616 43.2281 33.5 43C33.3859 42.7754 33.449 42.2302 33.5 42C33.5925 41.5822 32.9246 41.0911 32.5 41C32.0755 40.9093 31.5926 41.5822 31.5 42C31.3736 42.571 32.2273 43.4636 32.5 44C32.8059 44.6019 32.8332 44.7867 33.5 45C33.7679 45.0857 34.223 45 34.5 45C34.9157 45 35.1317 45.1878 35.5 45L36.5 44V51C36.5 51.159 36.6617 52 36.5 52ZM72.5 43C72.5 44.626 71.1531 46 69.5 46H45.5C43.8469 46 42.5 44.626 42.5 43V41H43.5C44.7212 40.3773 45.7187 39.0038 45.5 38L50.5 32C50.7825 31.675 50.8305 31.2778 50.5 31C50.1699 30.7221 48.7827 30.675 48.5 31L44.5 36C43.9357 35.4843 43.3596 35.8262 42.5 36V30C42.5 28.374 43.8469 28 45.5 28H69.5C71.1531 28 72.5 28.374 72.5 30V43ZM51.5 30C51.5 29.5725 52.0653 30 52.5 30H59.5C59.9347 30 60.5 29.5725 60.5 30C60.5 30.4275 59.9347 31 59.5 31H52.5C52.0653 31 51.5 30.4275 51.5 30ZM67.5 30C67.5 30.4275 66.9347 31 66.5 31H63.5C63.0653 31 62.5 30.4275 62.5 30C62.5 29.5725 63.0653 30 63.5 30H66.5C66.9347 30 67.5 29.5725 67.5 30ZM51.5 35C51.5 34.5725 52.0653 34 52.5 34H66.5C66.9347 34 67.5 34.5725 67.5 35C67.5 35.4275 66.9347 35 66.5 35H52.5C52.0653 35 51.5 35.4275 51.5 35ZM50.5 39C50.5 38.5725 51.0653 38 51.5 38H60.5C60.9347 38 61.5 38.5725 61.5 39C61.5 39.4275 60.9347 40 60.5 40H51.5C51.0653 40 50.5 39.4275 50.5 39ZM67.5 39C67.5 39.4275 66.9347 40 66.5 40H63.5C63.0653 40 62.5 39.4275 62.5 39C62.5 38.5725 63.0653 38 63.5 38H66.5C66.9347 38 67.5 38.5725 67.5 39ZM67.5 43C67.5 43.4275 66.9347 44 66.5 44H55.5C55.0653 44 54.5 43.4275 54.5 43C54.5 42.5725 55.0653 42 55.5 42H66.5C66.9347 42 67.5 42.5725 67.5 43ZM52.5 43C52.5 43.4275 52.9347 44 52.5 44H48.5C48.0653 44 48.5 43.4275 48.5 43C48.5 42.5725 48.0653 42 48.5 42H52.5C52.9347 42 52.5 42.5725 52.5 43ZM72.5 68H70.5C69.7814 65.4691 67.9161 62.922 65.5 62C66.7172 61.0981 67.5 59.611 67.5 58C67.5 55.2772 65.2681 53 62.5 53C59.7319 53 57.5 55.2772 57.5 58C57.5 59.6109 58.2828 61.0981 59.5 62C58.7261 62.2953 58.1468 62.5015 57.5 63C56.556 61.792 55.9107 61.5344 54.5 61C55.7122 60.0977 56.5 58.6071 56.5 57C56.5 54.2772 54.2681 52 51.5 52C48.7319 52 45.5 54.2772 45.5 57C45.5 58.607 46.2879 60.0978 47.5 61C46.0876 61.535 45.4445 61.7897 44.5 63C43.8531 62.5012 43.2741 62.2955 42.5 62C43.7165 61.0985 44.5 59.6101 44.5 58C44.5 55.2781 42.2673 53 39.5 53C36.7327 53 34.5 55.2781 34.5 58C34.5 59.6101 35.2836 61.0985 36.5 62C34.0853 62.9216 32.2184 65.4705 31.5 68H29.5C28.1548 68 27.5 68.6771 27.5 70V73C27.5 73.7831 27.7038 74 28.5 74H73.5C74.2962 74 74.5 73.7831 74.5 73V70C74.5 68.677 73.8452 68 72.5 68ZM59.5 58C59.5 56.131 60.5998 55 62.5 55C64.4002 55 66.5 56.131 66.5 58C66.5 59.869 64.3988 61.9985 62.5 62C62.499 62 62.501 62 62.5 62C62.499 62 62.501 62 62.5 62C60.6012 61.9984 59.5 59.868 59.5 58ZM62.5 63C65.4067 63.0013 68.5589 65.3688 69.5 68H56.5C57.4412 65.3687 59.5933 63.0013 62.5 63ZM47.5 57C47.5 55.131 48.5998 53 50.5 53C52.4002 53 54.5 55.1309 54.5 57C54.5 58.8691 53.398 59.9976 51.5 60C51.4984 60 50.5016 60 50.5 60C50.4984 60 50.5016 60 50.5 60C48.6019 59.9975 47.5 58.8674 47.5 57ZM50.5 62C50.5016 62 51.4984 62 51.5 62C51.4984 62 51.5016 62 51.5 62C53.6871 62.0015 55.2231 62.2864 56.5 64C55.699 64.9022 54.8403 66.8012 54.5 68H47.5C47.1601 66.8032 46.2993 64.9012 45.5 64C46.7766 62.2835 48.3106 62.0015 50.5 62ZM35.5 58C35.5 56.132 37.6008 55 39.5 55C41.3992 55 42.5 56.132 42.5 58C42.5 59.868 41.3978 61.9985 39.5 62C39.499 62 39.501 62 39.5 62C39.499 62 39.501 62 39.5 62C37.6023 61.9984 35.5 59.867 35.5 58ZM39.5 63C42.4048 63.0013 44.559 65.3707 45.5 68H32.5C33.441 65.3707 36.5952 63.0013 39.5 63ZM72.5 72H29.5V70C29.5 69.5307 29.0229 69 29.5 69H31.5C31.499 69 31.501 69 31.5 69C31.4989 69 31.5011 69 31.5 69H46.5H70.5C70.4989 69 70.5011 69 70.5 69C70.499 69 70.501 69 70.5 69H72.5C72.9771 69 72.5 69.5308 72.5 70V72Z" fill="white"/>
</svg>
