<svg width="101" height="100" viewBox="0 0 101 100" fill="none" xmlns="http://www.w3.org/2000/svg">
<circle cx="50.5" cy="50" r="50" fill="#FF754A"/>
<path d="M40.775 53.6501C36.0167 53.4334 30.9167 55.0751 30.7 55.1501C30.3583 55.2584 30.125 55.5834 30.125 55.9417V66.1501C30.125 66.5251 30.375 66.8501 30.7333 66.9501C30.8417 66.9834 41.5083 69.9667 52.0583 69.9667C57.2083 69.9667 65.225 65.5667 69.55 62.9417C70.225 62.5334 70.6917 61.8501 70.8333 61.0751C70.975 60.2917 70.7667 59.4917 70.275 58.8751C69.6167 58.0417 68.525 57.6667 67.4917 57.9084L56.1333 60.5584C56.1917 60.3167 56.225 60.0584 56.225 59.7917C56.225 58.0917 54.8417 56.7001 53.1333 56.7001H48.8583C46.8917 56.7001 46.2167 56.1417 45.3667 55.4334C44.4333 54.6501 43.3667 53.7667 40.775 53.6501ZM53.1333 58.3667C53.9167 58.3667 54.5583 59.0084 54.5583 59.7917C54.5583 60.4501 54.1083 61.0084 53.4917 61.1667L53.425 61.1834C53.3333 61.2001 53.2333 61.2167 53.1333 61.2167H46.15C45.6917 61.2167 45.3167 61.5917 45.3167 62.0501C45.3167 62.5084 45.6917 62.8834 46.15 62.8834H53.1333C53.3417 62.8834 53.55 62.8584 53.7417 62.8251C53.75 62.8251 53.7583 62.8251 53.775 62.8167L53.9 62.7917L67.8667 59.5334C68.275 59.4417 68.7083 59.5917 68.9667 59.9167C69.1667 60.1667 69.2417 60.4751 69.1917 60.7917C69.1333 61.1001 68.9583 61.3667 68.6833 61.5251C65.325 63.5667 56.975 68.3001 52.0583 68.3001C43.1667 68.3001 34.175 66.1251 31.8 65.5084V56.5584C33.2417 56.1501 37.15 55.1584 40.7083 55.3084C42.7417 55.4001 43.4667 56.0084 44.3083 56.7084C45.2417 57.4834 46.3 58.3667 48.8667 58.3667H53.1333Z" fill="white"/>
<path d="M58.3747 53.6499C64.8831 53.6499 70.1831 48.3499 70.1831 41.8415C70.1831 35.3332 64.8831 30.0332 58.3747 30.0332C51.8664 30.0332 46.5664 35.3332 46.5664 41.8415C46.5664 48.3499 51.8664 53.6499 58.3747 53.6499ZM58.3747 31.6999C63.9664 31.6999 68.5164 36.2499 68.5164 41.8415C68.5164 47.4332 63.9664 51.9832 58.3747 51.9832C52.7831 51.9832 48.2331 47.4332 48.2331 41.8415C48.2331 36.2499 52.7831 31.6999 58.3747 31.6999Z" fill="white"/>
<path d="M58.375 46.6665C56.9083 46.6665 55.6667 45.7498 55.6667 44.6748C55.6667 44.2165 55.2917 43.8415 54.8333 43.8415C54.375 43.8415 54 44.2165 54 44.6748C54 46.4581 55.525 47.9415 57.5417 48.2665V48.9331C57.5417 49.3915 57.9167 49.7665 58.375 49.7665C58.8333 49.7665 59.2083 49.3915 59.2083 48.9331V48.2665C61.225 47.9415 62.75 46.4581 62.75 44.6748C62.75 42.9081 61.3417 41.6831 58.5667 41.0331C57.2417 40.7248 55.6667 40.1248 55.6667 39.0165C55.6667 37.9331 56.9083 37.0248 58.375 37.0248C59.8417 37.0248 61.0833 37.9415 61.0833 39.0165C61.0833 39.4748 61.4583 39.8498 61.9167 39.8498C62.375 39.8498 62.75 39.4748 62.75 39.0165C62.75 37.2331 61.225 35.7498 59.2083 35.4248V34.7581C59.2083 34.2998 58.8333 33.9248 58.375 33.9248C57.9167 33.9248 57.5417 34.2998 57.5417 34.7581V35.4248C55.525 35.7498 54 37.2331 54 39.0165C54 40.2331 54.725 41.8498 58.1833 42.6581C60.1083 43.1081 61.0833 43.7831 61.0833 44.6748C61.0833 45.7498 59.8417 46.6665 58.375 46.6665Z" fill="white"/>
</svg>
