<svg width="101" height="100" viewBox="0 0 101 100" fill="none" xmlns="http://www.w3.org/2000/svg">
<circle cx="50.5" cy="50" r="50" fill="#FF754A"/>
<g clip-path="url(#clip0_213_2796)">
<path d="M63.0002 25C60.3985 25.0138 57.865 25.8336 55.7485 27.3468C53.6321 28.8599 52.0366 30.9918 51.1819 33.4492C50.6776 33.0414 50.1405 32.676 49.576 32.3567C49.3474 30.999 48.6452 29.7662 47.5939 28.8771C46.5426 27.9881 45.2104 27.5002 43.8335 27.5002C42.4567 27.5002 41.1245 27.9881 40.0732 28.8771C39.0219 29.7662 38.3196 30.999 38.091 32.3567C36.2947 33.3724 34.8 34.8464 33.7592 36.6284C32.7185 38.4103 32.169 40.4364 32.1669 42.5V45C32.1678 45.7373 32.4127 46.4537 32.8634 47.0372C33.3141 47.6208 33.9453 48.0387 34.6585 48.2258C34.7134 49.8167 35.1327 51.3738 35.8839 52.7772C36.6352 54.1806 37.6984 55.3929 38.9919 56.3208L38.9827 56.4217L29.9169 60.6C29.0257 61.0004 28.2502 61.6195 27.6624 62.3998C27.0745 63.1801 26.6934 64.0963 26.5544 65.0633L25.5277 72.1467C25.4776 72.4995 25.5037 72.8589 25.6043 73.2008C25.705 73.5427 25.8778 73.859 26.111 74.1283C26.3491 74.4022 26.6432 74.6218 26.9734 74.7721C27.3037 74.9225 27.6623 75.0002 28.0252 75H59.6419C60.005 75.0009 60.364 74.9238 60.6947 74.7738C61.0254 74.6238 61.32 74.4046 61.5585 74.1308C61.7922 73.8612 61.9652 73.5445 62.0659 73.2022C62.1665 72.8598 62.1924 72.4999 62.1419 72.1467L61.1169 65.0633C60.9779 64.0968 60.5971 63.1809 60.0097 62.4008C59.4223 61.6207 58.6474 61.0015 57.7569 60.6008L48.6819 56.4208L48.6727 56.32C49.9664 55.392 51.0298 54.1794 51.7811 52.7757C52.5324 51.372 52.9515 49.8145 53.006 48.2233C53.6209 48.0626 54.1773 47.7302 54.6102 47.265C54.6921 47.1676 54.7686 47.0657 54.8394 46.96C57.1014 48.9288 60.0014 50.0091 63.0002 50C66.3154 50 69.4948 48.683 71.839 46.3388C74.1833 43.9946 75.5002 40.8152 75.5002 37.5C75.5002 34.1848 74.1833 31.0054 71.839 28.6612C69.4948 26.317 66.3154 25 63.0002 25ZM43.8335 29.1667C44.6 29.1722 45.3503 29.3876 46.003 29.7894C46.6557 30.1912 47.1859 30.7641 47.536 31.4458C45.1352 30.6294 42.5319 30.6294 40.131 31.4458C40.4812 30.7641 41.0114 30.1912 41.6641 29.7894C42.3168 29.3876 43.0671 29.1722 43.8335 29.1667ZM43.8335 32.5C46.4206 32.5041 48.9055 33.5102 50.7666 35.3072C52.6277 37.1041 53.7204 39.5522 53.8152 42.1375C53.3015 41.8356 52.7177 41.6733 52.1219 41.6667C51.3972 41.6995 50.6797 41.5113 50.0645 41.127C49.4493 40.7427 48.9653 40.1806 48.6769 39.515C48.5277 39.21 48.3078 38.9451 48.0356 38.7422C47.7634 38.5393 47.4467 38.4042 47.1119 38.3483C46.7994 38.2952 46.4787 38.3184 46.1772 38.416C45.8756 38.5137 45.6022 38.6829 45.3802 38.9092C42.6885 41.63 35.5719 41.6667 35.5002 41.6667C34.9207 41.6701 34.3524 41.8265 33.8527 42.12C33.9519 39.5379 35.0464 37.0944 36.9069 35.3011C38.7674 33.5079 41.2495 32.5041 43.8335 32.5ZM47.0835 57.2867L47.151 58.0367C47.193 58.4975 47.1384 58.9621 46.9907 59.4006C46.843 59.8392 46.6055 60.2421 46.2933 60.5837C45.9811 60.9253 45.6011 61.198 45.1776 61.3845C44.7541 61.571 44.2963 61.6671 43.8335 61.6667C42.952 61.668 42.1059 61.3195 41.4809 60.6977C40.856 60.0759 40.5033 59.2316 40.5002 58.35C40.5002 58.2417 40.5069 58.1392 40.5135 58.0333L40.581 57.2833C41.166 57.5903 41.7713 57.8568 42.3927 58.0808C43.3245 58.413 44.3425 58.413 45.2744 58.0808C45.8947 57.8574 46.4992 57.5921 47.0835 57.2867ZM59.4652 65.3025L60.4894 72.3858C60.5066 72.5026 60.498 72.6218 60.4643 72.7349C60.4307 72.8481 60.3726 72.9525 60.2944 73.0408C60.2132 73.1338 60.1128 73.2081 60.0002 73.2586C59.8875 73.3091 59.7653 73.3346 59.6419 73.3333H28.0252C27.9012 73.3346 27.7783 73.3089 27.6652 73.258C27.5521 73.207 27.4515 73.1321 27.3702 73.0383C27.2922 72.9503 27.2343 72.8463 27.2004 72.7337C27.1666 72.621 27.1577 72.5023 27.1744 72.3858L28.2002 65.3025C28.3003 64.6116 28.5735 63.9571 28.9942 63.4C29.415 62.8429 29.9697 62.4012 30.6069 62.1158L38.8335 58.3258V58.35C38.8352 59.0066 38.9661 59.6565 39.2189 60.2625C39.4717 60.8685 39.8414 61.4187 40.3068 61.8819C40.7723 62.345 41.3244 62.7119 41.9317 62.9617C42.5389 63.2114 43.1894 63.3391 43.846 63.3375C44.5027 63.3359 45.1525 63.2049 45.7585 62.9521C46.3645 62.6993 46.9148 62.3297 47.3779 61.8642C47.841 61.3987 48.208 60.8466 48.4577 60.2394C48.7075 59.6321 48.8352 58.9816 48.8335 58.325L57.066 62.1167C57.7021 62.4027 58.2558 62.8446 58.6756 63.4015C59.0954 63.9584 59.3679 64.6123 59.4677 65.3025H59.4652ZM53.3877 46.1358C53.2321 46.3041 53.0432 46.4381 52.833 46.5295C52.6229 46.6209 52.396 46.6676 52.1669 46.6667C52.0501 46.6667 51.9346 46.6913 51.828 46.7389C51.7213 46.7864 51.6258 46.8559 51.5477 46.9427C51.4696 47.0295 51.4106 47.1318 51.3746 47.2429C51.3386 47.3539 51.3263 47.4714 51.3385 47.5875C51.3644 47.8458 51.9019 53.945 44.7135 56.515C44.1444 56.7175 43.5227 56.7175 42.9535 56.515C35.7702 53.9467 36.3019 47.8542 36.3285 47.5875C36.3408 47.4714 36.3285 47.3539 36.2925 47.2429C36.2564 47.1318 36.1975 47.0295 36.1194 46.9427C36.0413 46.8559 35.9458 46.7864 35.8391 46.7389C35.7325 46.6913 35.617 46.6667 35.5002 46.6667C35.0582 46.6667 34.6343 46.4911 34.3217 46.1785C34.0091 45.866 33.8335 45.442 33.8335 45C33.8335 44.558 34.0091 44.1341 34.3217 43.8215C34.6343 43.5089 35.0582 43.3333 35.5002 43.3333C35.821 43.3333 43.3852 43.2967 46.5652 40.0792C46.6007 40.0425 46.6446 40.0152 46.6932 39.9996C46.7417 39.9841 46.7934 39.9808 46.8435 39.99C46.9166 40.0036 46.9853 40.0343 47.0441 40.0797C47.1029 40.125 47.1502 40.1837 47.1819 40.2508C47.607 41.1938 48.3019 41.9897 49.1788 42.5383C50.0557 43.0869 51.0754 43.3635 52.1094 43.3333C52.5342 43.3344 52.9438 43.4912 53.2607 43.7741C53.5775 44.0571 53.7796 44.4464 53.8285 44.8683C53.8473 45.0979 53.8181 45.3289 53.7426 45.5466C53.6671 45.7643 53.5471 45.9638 53.3902 46.1325L53.3877 46.1358ZM63.0002 48.3333C60.1884 48.3384 57.4869 47.2396 55.4769 45.2733C55.4844 45.1833 55.4844 45.0917 55.4844 45H55.5002V42.5C55.499 39.6388 54.441 36.8789 52.5294 34.75C53.0433 32.7916 54.0958 31.0165 55.5675 29.6259C57.0391 28.2353 58.871 27.285 60.8553 26.8827C62.8396 26.4804 64.8969 26.6422 66.794 27.3498C68.691 28.0574 70.3517 29.2825 71.5879 30.886C72.824 32.4896 73.586 34.4075 73.7874 36.4221C73.9889 38.4368 73.6217 40.4675 72.7276 42.2841C71.8335 44.1007 70.4482 45.6303 68.7288 46.6996C67.0095 47.7688 65.0249 48.3348 63.0002 48.3333Z" fill="white"/>
<path d="M60.0953 37.7141C60.2327 37.7693 60.3823 37.7869 60.5288 37.7651C60.6753 37.7433 60.8133 37.6828 60.9286 37.5899C61.4635 37.1566 61.8512 36.5683 62.0383 35.9058C62.2254 35.2433 62.2028 34.5391 61.9735 33.89C61.7443 33.2408 61.3198 32.6786 60.7581 32.2805C60.1965 31.8823 59.5254 31.6679 58.837 31.6665C58.1486 31.6651 57.4766 31.877 56.9135 32.2729C56.3503 32.6688 55.9235 33.2293 55.6917 33.8775C55.4599 34.5257 55.4345 35.2298 55.619 35.8931C55.8035 36.5563 56.1888 37.1462 56.7219 37.5816C56.837 37.675 56.9748 37.7361 57.1213 37.7585C57.2678 37.7809 57.4176 37.7639 57.5553 37.7091C57.9648 37.5608 58.3982 37.4899 58.8336 37.4999C59.264 37.4898 59.6923 37.5625 60.0953 37.7141ZM57.4886 35.9866C57.3065 35.738 57.1969 35.4438 57.1719 35.1367C57.1469 34.8295 57.2076 34.5215 57.3471 34.2468C57.4867 33.972 57.6997 33.7414 57.9625 33.5804C58.2252 33.4194 58.5275 33.3345 58.8356 33.3349C59.1438 33.3354 59.4458 33.4213 59.7081 33.5831C59.9703 33.7449 60.1826 33.9762 60.3213 34.2514C60.46 34.5265 60.5197 34.8348 60.4938 35.1418C60.4679 35.4489 60.3573 35.7428 60.1744 35.9908C59.7358 35.8826 59.2854 35.8297 58.8336 35.8333C58.3807 35.8299 57.9291 35.8814 57.4886 35.9866Z" fill="white"/>
<path d="M67.1662 31.6665C66.478 31.6661 65.8065 31.8788 65.244 32.2753C64.6815 32.6718 64.2555 33.2327 64.0244 33.881C63.7934 34.5292 63.7688 35.2331 63.9538 35.896C64.1388 36.5589 64.5245 37.1482 65.0579 37.5832C65.1729 37.6766 65.3107 37.7377 65.4572 37.7601C65.6037 37.7825 65.7535 37.7654 65.8912 37.7107C66.2995 37.5622 66.7318 37.4907 67.1662 37.4998C67.5966 37.4897 68.0249 37.5624 68.4279 37.714C68.5653 37.7692 68.7149 37.7868 68.8614 37.765C69.0078 37.7432 69.1458 37.6827 69.2612 37.5898C69.7963 37.1563 70.184 36.5677 70.371 35.9049C70.558 35.2421 70.5351 34.5376 70.3054 33.8884C70.0758 33.2391 69.6507 32.6769 69.0886 32.279C68.5264 31.8812 67.8549 31.6672 67.1662 31.6665ZM68.507 35.9907C68.0684 35.8825 67.6179 35.8296 67.1662 35.8332C66.7133 35.8298 66.2617 35.8813 65.8212 35.9865C65.6391 35.7379 65.5294 35.4437 65.5044 35.1366C65.4795 34.8294 65.5401 34.5214 65.6797 34.2467C65.8193 33.9719 66.0323 33.7413 66.295 33.5803C66.5578 33.4193 66.8601 33.3344 67.1682 33.3348C67.4764 33.3353 67.7784 33.4212 68.0406 33.583C68.3029 33.7448 68.5152 33.9761 68.6539 34.2513C68.7926 34.5264 68.8523 34.8347 68.8264 35.1417C68.8005 35.4488 68.6899 35.7427 68.507 35.9907Z" fill="white"/>
<path d="M67.4302 40.0436C67.2206 39.9739 66.992 39.9902 66.7945 40.089C66.597 40.1877 66.4468 40.3608 66.3768 40.5702C66.3702 40.5894 65.7018 42.5002 63.0002 42.5002C60.3543 42.5002 59.6552 40.6561 59.6218 40.5636C59.5466 40.36 59.395 40.1939 59.1992 40.1004C59.0035 40.0069 58.7789 39.9935 58.5734 40.0629C58.3679 40.1324 58.1975 40.2793 58.0986 40.4723C57.9996 40.6654 57.9799 40.8895 58.0435 41.0969C58.0835 41.2227 59.111 44.1669 63.0002 44.1669C66.8893 44.1669 67.9168 41.2227 67.9568 41.0969C68.0265 40.8874 68.0102 40.6587 67.9114 40.4613C67.8127 40.2638 67.6396 40.1135 67.4302 40.0436Z" fill="white"/>
<path d="M46.6324 50.8943C46.427 50.8147 46.1983 50.8198 45.9966 50.9083C45.7948 50.9969 45.6363 51.1617 45.5558 51.3668C45.4109 51.7033 45.1705 51.99 44.8645 52.1914C44.5584 52.3928 44.2001 52.5002 43.8337 52.5002C43.4673 52.5002 43.109 52.3928 42.8029 52.1914C42.4969 51.99 42.2565 51.7033 42.1116 51.3668C42.033 51.1601 41.8755 50.993 41.6738 50.9023C41.472 50.8117 41.2425 50.8049 41.0358 50.8835C40.829 50.9621 40.6619 51.1196 40.5713 51.3213C40.4807 51.5231 40.4739 51.7526 40.5524 51.9593C40.8181 52.6115 41.2721 53.1698 41.8564 53.5628C42.4408 53.9557 43.129 54.1656 43.8333 54.1656C44.5375 54.1656 45.2257 53.9557 45.8101 53.5628C46.3945 53.1698 46.8485 52.6115 47.1141 51.9593C47.1896 51.7541 47.1814 51.5275 47.0913 51.3282C47.0012 51.129 46.8364 50.9732 46.6324 50.8943Z" fill="white"/>
</g>
<defs>
<clipPath id="clip0_213_2796">
<rect width="50" height="50" fill="white" transform="translate(25.5 25)"/>
</clipPath>
</defs>
</svg>
