<svg width="101" height="100" viewBox="0 0 101 100" fill="none" xmlns="http://www.w3.org/2000/svg">
<circle cx="50.5" cy="50" r="50" fill="#FF754A"/>
<path d="M30.827 70.3067C30.9136 70.3067 71.8526 70.3067 70.1732 70.3067C70.5235 70.3067 70.8078 70.0224 70.8078 69.6721C70.8078 69.3217 70.5235 69.0374 70.1732 69.0374H67.7843V41.8725H69.0064C70.1909 41.8725 70.9134 40.5668 70.2855 39.5625L64.5418 30.4003C63.9619 29.4752 62.6177 29.4531 62.0099 30.3631L55.8778 39.5245C55.2078 40.5251 55.9263 41.8725 57.1321 41.8725H58.2964V69.0374H55.2407V48.9669C55.2407 47.684 54.197 46.64 52.9138 46.64H48.0814C46.7982 46.64 45.7545 47.684 45.7545 48.9669V69.0374H42.7012V57.5875C42.7012 56.3046 41.6576 55.2606 40.3743 55.2606H35.542C34.2587 55.2606 33.2151 56.3046 33.2151 57.5875V69.0374H30.827C30.4766 69.0374 30.1924 69.3217 30.1924 69.6721C30.1924 70.0224 30.4766 70.3067 30.827 70.3067ZM58.931 40.6033H57.1321C56.9403 40.6033 56.8251 40.3901 56.9322 40.2302L63.0651 31.0683C63.1553 30.9336 63.3675 30.9168 63.4667 31.075L69.2097 40.2364C69.3102 40.3968 69.1957 40.6033 69.0064 40.6033H67.1496C66.7993 40.6033 66.515 40.8875 66.515 41.2379V69.0374H59.5657V41.2379C59.5657 40.8875 59.2814 40.6033 58.931 40.6033ZM47.0237 48.9669C47.0237 48.3835 47.498 47.9092 48.0814 47.9092H52.9138C53.4971 47.9092 53.9715 48.3835 53.9715 48.9669V69.0374H47.0237V48.9669ZM34.4843 57.5875C34.4843 57.0041 34.9586 56.5298 35.542 56.5298H40.3743C40.9577 56.5298 41.432 57.0041 41.432 57.5875V69.0374H34.4843V57.5875Z" fill="white"/>
</svg>
