<svg width="100" height="100" viewBox="0 0 100 100" fill="none" xmlns="http://www.w3.org/2000/svg">
<circle cx="50" cy="50" r="50" fill="#304078"/>
<g clip-path="url(#clip0_213_3133)">
<path d="M52.9751 32.0095C46.8539 30.3694 40.5378 34.0152 38.8974 40.1373C38.1026 43.1029 38.5105 46.2006 40.0457 48.8595C41.5809 51.5184 44.0596 53.4204 47.0252 54.215C48.0155 54.4804 49.0205 54.6117 50.0189 54.6117C52.0106 54.6117 53.9763 54.0893 55.7474 53.0668C58.4063 51.5316 60.3083 49.0529 61.1029 46.0873C62.7433 39.9653 59.0972 33.65 52.9751 32.0095ZM59.5936 45.683C58.907 48.2455 57.2636 50.3873 54.966 51.7137C52.6685 53.0402 49.9918 53.3925 47.4294 52.7059C44.8669 52.0193 42.7251 50.3759 41.3987 48.0783C40.0723 45.7809 39.7199 43.1042 40.4065 40.5417C41.5941 36.1094 45.6173 33.1792 50.0024 33.1792C50.8509 33.1792 51.7132 33.289 52.5707 33.5188C57.8605 34.9362 61.011 40.3931 59.5936 45.683ZM66.123 39.2426C65.9477 38.9782 65.8781 38.719 65.8979 38.4023L66.0659 35.7066C66.1404 34.5103 65.5199 33.4354 64.4466 32.9019L62.0281 31.6996C61.7439 31.5583 61.5541 31.3685 61.4128 31.0843L60.2106 28.666C59.677 27.5927 58.604 26.9717 57.4058 27.0466L54.7103 27.2146C54.3935 27.2348 54.1344 27.1649 53.8698 26.9894L51.6194 25.4961C50.6205 24.8333 49.3795 24.8332 48.3809 25.4961L46.1304 26.9895C45.866 27.1649 45.6075 27.2348 45.2899 27.2146L42.5944 27.0467C41.3992 26.9724 40.3231 27.5926 39.7896 28.6659L38.5873 31.0844C38.446 31.3686 38.2562 31.5584 37.972 31.6997L35.5535 32.902C34.4802 33.4355 33.8597 34.5104 33.9342 35.7068L34.1022 38.4023C34.122 38.7191 34.0525 38.9783 33.8771 39.2428L32.3839 41.493C31.721 42.4919 31.721 43.733 32.3839 44.7317L33.8771 46.9821C34.0526 47.2466 34.1221 47.5058 34.1023 47.8226L33.9344 50.5181C33.8597 51.7146 34.4803 52.7893 35.5536 53.323L37.9721 54.5252C38.2562 54.6665 38.4461 54.8563 38.5874 55.1405L39.7896 57.559C39.9554 57.8922 40.1732 58.1816 40.4305 58.4204L35.232 69.5686C35.0903 69.8724 35.1583 70.2328 35.4009 70.4642C35.6437 70.6956 36.0068 70.7461 36.3036 70.5902L42.8664 67.1391L44.4411 74.3848C44.5123 74.7123 44.7847 74.958 45.1179 74.9952C45.1471 74.9984 45.1761 75.0001 45.2049 75.0001C45.5057 75.0001 45.7834 74.8264 45.9126 74.549L50.0001 65.7831L54.0876 74.5489C54.2169 74.8263 54.4945 75 54.7953 75C54.8241 75 54.8531 74.9984 54.8823 74.9951C55.2155 74.9579 55.4878 74.7123 55.5591 74.3847L57.1339 67.139L63.6966 70.5901C63.9935 70.7464 64.3566 70.6955 64.5993 70.4641C64.8419 70.2327 64.91 69.8723 64.7682 69.5685L59.5694 58.4196C59.8269 58.1812 60.0449 57.892 60.2105 57.5588L61.4128 55.1403C61.5541 54.8562 61.7439 54.6663 62.0281 54.525L64.4466 53.3228C65.5199 52.7892 66.1404 51.7144 66.0659 50.5179L65.8979 47.8224C65.8781 47.5056 65.9477 47.2464 66.1231 46.9819L67.6163 44.7316C68.2792 43.7327 68.2792 42.4916 67.6163 41.4929L66.123 39.2426ZM45.4759 71.7884L44.1752 65.8035C44.1234 65.5651 43.9631 65.3646 43.7419 65.2614C43.5207 65.1582 43.2642 65.1645 43.0481 65.2779L37.6273 68.1285L41.8248 59.1269C42.0726 59.1754 42.3301 59.1946 42.5944 59.178L45.2899 59.01C45.6074 58.9904 45.8659 59.0598 46.1304 59.2353L48.3808 60.7285C48.8803 61.06 49.4401 61.2257 50.0001 61.2256C50.1389 61.2256 50.2777 61.2152 50.4156 61.1949L45.4759 71.7884ZM62.3728 68.1286L56.9521 65.278C56.736 65.1646 56.4795 65.1583 56.2584 65.2615C56.0372 65.3647 55.877 65.5651 55.8251 65.8036L54.5244 71.7885L50.8621 63.9347L52.6876 60.0199L53.8699 59.2354C54.1343 59.06 54.3928 58.9896 54.7102 59.0102L57.4059 59.1782C57.6698 59.1943 57.9272 59.1748 58.1749 59.126L62.3728 68.1286ZM66.3144 43.8679L64.8213 46.1182C64.4552 46.6696 64.2973 47.259 64.3385 47.9197L64.5065 50.6152C64.5418 51.1819 64.2595 51.6711 63.7511 51.9237L61.3326 53.1261C60.7399 53.4208 60.3086 53.8521 60.0138 54.4448L58.8114 56.8633C58.5588 57.3716 58.0699 57.6548 57.5031 57.6187L54.8074 57.4507C54.1463 57.4089 53.5573 57.5674 53.0061 57.9334L50.7557 59.4267C50.2825 59.7404 49.7179 59.7406 49.2447 59.4267L46.9943 57.9335C46.4997 57.6052 45.9747 57.4442 45.3949 57.4442C45.3282 57.4442 45.2609 57.4463 45.1928 57.4506L42.4973 57.6187C41.9306 57.6546 41.4414 57.3716 41.1888 56.8632L39.9864 54.4447C39.6917 53.8521 39.2604 53.4207 38.6677 53.1259L36.2492 51.9235C35.7408 51.6709 35.4584 51.1817 35.4938 50.6151L35.6618 47.9195C35.7029 47.2589 35.5451 46.6696 35.1792 46.1182L33.6859 43.8677C33.372 43.3946 33.372 42.8299 33.6859 42.3567L35.1792 40.1063C35.5451 39.5549 35.7029 38.9655 35.6618 38.3049L35.4938 35.6094C35.4585 35.0427 35.7408 34.5535 36.2492 34.3009L38.6677 33.0985C39.2604 32.8038 39.6917 32.3725 39.9865 31.7798L41.1889 29.3612C41.4416 28.853 41.9303 28.5714 42.4973 28.606L45.1929 28.7739C45.8535 28.8151 46.4427 28.6572 46.9942 28.2913L49.2448 26.7979C49.7178 26.484 50.2827 26.484 50.7557 26.7979L53.0061 28.2912C53.5576 28.6571 54.1465 28.8158 54.8075 28.7739L57.503 28.6059C58.0704 28.57 58.5588 28.853 58.8115 29.3613L60.0139 31.7798C60.3086 32.3725 60.7399 32.8038 61.3326 33.0986L63.7511 34.301C64.2595 34.5536 64.5419 35.0428 64.5065 35.6093L64.3385 38.305C64.2973 38.9657 64.4552 39.555 64.8212 40.1063L66.3144 42.3568C66.6282 42.83 66.6282 43.3947 66.3144 43.8679ZM50.7071 35.4308C50.5784 35.1566 50.3028 34.9816 50.0001 34.9816C49.6974 34.9816 49.4218 35.1566 49.2931 35.4308L47.2169 39.8497L42.3728 40.4586C42.0724 40.4964 41.8208 40.7044 41.7272 40.9924C41.6337 41.2803 41.7149 41.5965 41.9358 41.8036L45.4969 45.1437L44.5791 49.939C44.5222 50.2364 44.6422 50.5398 44.8872 50.7179C45.132 50.8958 45.4578 50.9163 45.7232 50.7702L50.0001 48.4153L54.2771 50.77C54.3949 50.8349 54.5246 50.8669 54.6538 50.8669C54.8157 50.8669 54.977 50.8166 55.1131 50.7177C55.3581 50.5397 55.4781 50.2362 55.4212 49.9388L54.5034 45.1435L58.0645 41.8034C58.2854 41.5963 58.3666 41.2802 58.273 40.9922C58.1795 40.7042 57.9279 40.4962 57.6275 40.4584L52.7834 39.8495L50.7071 35.4308ZM53.1208 44.2981C52.9255 44.4813 52.8376 44.7519 52.8879 45.0148L53.5739 48.5993L50.3769 46.8393C50.2596 46.7747 50.1298 46.7424 50.0001 46.7424C49.8704 46.7424 49.7406 46.7747 49.6233 46.8393L46.4263 48.5993L47.1123 45.0148C47.1627 44.7519 47.0747 44.4813 46.8794 44.2981L44.2175 41.8015L47.8386 41.3463C48.1043 41.3129 48.3343 41.1457 48.4481 40.9033L50.0001 37.6001L51.5521 40.9032C51.6659 41.1456 51.8959 41.3128 52.1616 41.3462L55.7827 41.8014L53.1208 44.2981Z" fill="white"/>
</g>
<defs>
<clipPath id="clip0_213_3133">
<rect width="50" height="50" fill="white" transform="translate(25 25)"/>
</clipPath>
</defs>
</svg>
