<svg width="77" height="78" viewBox="0 0 77 78" fill="none" xmlns="http://www.w3.org/2000/svg">
<circle cx="38.5" cy="38.5539" r="38.5" fill="#304078"/>
<path d="M21 50.0539V47.0539C25.1572 47.0539 26.9982 45.8568 29 45.0539C33.1546 43.3873 36.7253 44.8328 39 49.0539C41.2746 44.8328 44.8454 43.3873 49 45.0539C51.0017 45.8568 52.8428 47.0539 57 47.0539V50.0539" stroke="white" stroke-width="1.56251" stroke-miterlimit="22.9256" stroke-linecap="round" stroke-linejoin="round"/>
<path d="M39 49.0539V51.0539" stroke="white" stroke-width="1.56251" stroke-miterlimit="22.9256" stroke-linecap="round" stroke-linejoin="round"/>
<path fill-rule="evenodd" clip-rule="evenodd" d="M39 52.0539C39.5769 51.1298 40.8469 51.0539 42 51.0539H58V54.0539H42C41.6677 55.0865 40.2246 56.0539 39 56.0539C37.7754 56.0539 36.3323 55.0865 36 54.0539H20V51.0539H36C37.1531 51.0539 38.4231 51.1298 39 52.0539Z" stroke="white" stroke-width="1.56251" stroke-miterlimit="22.9256" stroke-linecap="round" stroke-linejoin="round"/>
<path d="M24 28.0539L39 34.0539L53 28.0539L39 22.0539L24 28.0539V35.0539M39 28.0539H24" stroke="white" stroke-width="1.56251" stroke-miterlimit="22.9256" stroke-linecap="round" stroke-linejoin="round"/>
<path d="M30 31.0539V38.0539C32.8884 39.6095 36.6648 40.0539 40 40.0539C43.3352 40.0539 46.1116 39.6095 49 38.0539V31.0539" stroke="white" stroke-width="1.56251" stroke-miterlimit="22.9256" stroke-linecap="round" stroke-linejoin="round"/>
<path d="M23 40.0539V37.0539C23 36.1699 24.175 35.0539 25 35.0539C25.825 35.0539 26 36.17 26 37.0539V40.0539" stroke="white" stroke-width="1.56251" stroke-miterlimit="22.9256" stroke-linecap="round" stroke-linejoin="round"/>
<path d="M23 39.0539H26" stroke="white" stroke-width="1.56251" stroke-miterlimit="22.9256" stroke-linecap="round" stroke-linejoin="round"/>
</svg>
