<svg width="78" height="78" viewBox="0 0 78 78" fill="none" xmlns="http://www.w3.org/2000/svg">
<circle cx="39.3921" cy="38.5539" r="38.5" fill="#304078"/>
<g clip-path="url(#clip0_99_1005)">
<path d="M56.3643 31.0539L55.8921 31.5261" stroke="white" stroke-width="1.5625" stroke-miterlimit="10" stroke-linecap="round" stroke-linejoin="round"/>
<path d="M51.8924 29.0539L51.8921 29.7214" stroke="white" stroke-width="1.5625" stroke-miterlimit="10" stroke-linecap="round" stroke-linejoin="round"/>
<path d="M58.8921 36.0535L58.2246 36.0538" stroke="white" stroke-width="1.5625" stroke-miterlimit="10" stroke-linecap="round" stroke-linejoin="round"/>
<path d="M32.019 55.9164L32.5093 55.4238" stroke="white" stroke-width="1.5625" stroke-miterlimit="10" stroke-linecap="round" stroke-linejoin="round"/>
<path d="M37.1592 58.0537L37.1595 57.3574" stroke="white" stroke-width="1.5625" stroke-miterlimit="10" stroke-linecap="round" stroke-linejoin="round"/>
<path d="M29.8921 50.7519L30.5851 50.7516" stroke="white" stroke-width="1.5625" stroke-miterlimit="10" stroke-linecap="round" stroke-linejoin="round"/>
<path d="M26.3533 29.0726H26.3401C24.3403 29.0726 22.7192 27.4426 22.7192 25.4319V23.6945C22.7192 21.6837 24.3403 20.0538 26.3401 20.0538H26.3533C28.3531 20.0538 29.9742 21.6837 29.9742 23.6945V25.4319C29.9742 27.4426 28.353 29.0726 26.3533 29.0726Z" stroke="white" stroke-width="1.5625" stroke-miterlimit="10" stroke-linecap="round" stroke-linejoin="round"/>
<path d="M26.3466 29.0725C23.3341 29.0725 20.8921 31.519 20.8921 34.5368H31.8011C31.8011 31.519 29.359 29.0725 26.3466 29.0725Z" stroke="white" stroke-width="1.5625" stroke-miterlimit="10" stroke-linecap="round" stroke-linejoin="round"/>
<path d="M44.4745 44.6826H44.4609C42.4198 44.6826 40.7651 43.0189 40.7651 40.9666V39.1932C40.7651 37.1409 42.4198 35.4772 44.4609 35.4772H44.4745C46.5156 35.4772 48.1703 37.1408 48.1703 39.1932V40.9666C48.1702 43.0189 46.5156 44.6826 44.4745 44.6826Z" stroke="white" stroke-width="1.5625" stroke-miterlimit="10" stroke-linecap="round" stroke-linejoin="round"/>
<path d="M44.4677 44.6826C41.3929 44.6826 38.9004 47.1797 38.9004 50.26H50.035C50.0349 47.1797 47.5424 44.6826 44.4677 44.6826Z" stroke="white" stroke-width="1.5625" stroke-miterlimit="10" stroke-linecap="round" stroke-linejoin="round"/>
<path d="M44.4678 55.7082C51.1991 55.7082 56.6559 50.251 56.6559 43.5191C56.6559 36.7872 51.1991 31.33 44.4678 31.33C37.7366 31.33 32.2798 36.7872 32.2798 43.5191C32.2798 50.251 37.7366 55.7082 44.4678 55.7082Z" stroke="white" stroke-width="1.5625" stroke-miterlimit="10" stroke-linecap="round" stroke-linejoin="round"/>
<path d="M53.2075 52.2593L57.5711 56.6023" stroke="white" stroke-width="1.5625" stroke-miterlimit="10" stroke-linecap="round" stroke-linejoin="round"/>
</g>
<defs>
<clipPath id="clip0_99_1005">
<rect width="40" height="40" fill="white" transform="translate(19.8921 19.0539)"/>
</clipPath>
</defs>
</svg>
