<svg width="77" height="78" viewBox="0 0 77 78" fill="none" xmlns="http://www.w3.org/2000/svg">
<circle cx="38.5" cy="38.5539" r="38.5" fill="#304078"/>
<g clip-path="url(#clip0_99_990)">
<path d="M38 23.0539H46L49 26.0539L53 29.0539L55 36.0539L37 59.0539L29 52.0539L20 46.0539L38 23.0539Z" stroke="white" stroke-width="1.5625" stroke-miterlimit="10" stroke-linecap="round" stroke-linejoin="round"/>
<path d="M23 42.0539L40 55.0539" stroke="white" stroke-width="1.5625" stroke-miterlimit="10" stroke-linecap="round" stroke-linejoin="round"/>
<path d="M46.9998 28.0539C47.8719 28.7314 48.6775 30.1797 47.9998 31.0539C47.3243 31.9257 45.8742 32.7314 44.9998 32.0539C44.1277 31.3763 43.322 29.9257 43.9998 29.0539C44.6775 28.1797 46.1277 27.3787 46.9998 28.0539Z" stroke="white" stroke-width="1.5625" stroke-miterlimit="10" stroke-linecap="round" stroke-linejoin="round"/>
<path d="M46 28.0539C46.2917 26.7763 47.0706 26.268 48 25.0539C50.5113 21.7789 53.7545 20.2907 56 22.0539C58.2455 23.8171 58.5091 27.7768 56 31.0539C55.3668 31.8787 54.7543 32.5047 54 33.0539" stroke="white" stroke-width="1.5625" stroke-miterlimit="10" stroke-linecap="round" stroke-linejoin="round"/>
<path d="M43 37.0539C42.6321 35.9174 42.3092 35.211 41 35.0539C39.4623 34.8671 37.4356 36.5212 38 38.0539C38.2468 38.7212 39.406 39.1338 40 40.0539C41.3595 42.1629 39.0541 44.4524 37 44.0539C35.6725 43.7965 34.4227 42.2769 34 41.0539" stroke="white" stroke-width="1.5625" stroke-miterlimit="10" stroke-linecap="round" stroke-linejoin="round"/>
<path d="M42 34.0539L41 36.0539" stroke="white" stroke-width="1.5625" stroke-miterlimit="10" stroke-linecap="round" stroke-linejoin="round"/>
<path d="M35 44.0539L34 46.0539" stroke="white" stroke-width="1.5625" stroke-miterlimit="10" stroke-linecap="round" stroke-linejoin="round"/>
</g>
<defs>
<clipPath id="clip0_99_990">
<rect width="40" height="40" fill="white" transform="translate(19 20.0539)"/>
</clipPath>
</defs>
</svg>
