<svg width="79" height="77" viewBox="0 0 79 77" fill="none" xmlns="http://www.w3.org/2000/svg">
<circle cx="39.6326" cy="38.4012" r="38.4012" fill="#304078"/>
<g clip-path="url(#clip0_99_1041)">
<path d="M41.38 24.1286C36.483 22.8165 31.4301 25.7332 30.1178 30.6308C29.482 33.0033 29.8083 35.4814 31.0365 37.6085C32.2646 39.7357 34.2476 41.2573 36.6201 41.893C37.4123 42.1053 38.2163 42.2103 39.0151 42.2103C40.6084 42.2103 42.1809 41.7924 43.5978 40.9744C45.725 39.7463 47.2465 37.7633 47.8822 35.3908C49.1945 30.4932 46.2776 25.441 41.38 24.1286ZM46.6747 35.0674C46.1255 37.1174 44.8108 38.8308 42.9727 39.8919C41.1347 40.9532 38.9933 41.235 36.9434 40.6857C34.8934 40.1364 33.18 38.8217 32.1189 36.9836C31.0577 35.1457 30.7758 33.0043 31.3251 30.9543C32.2752 27.4085 35.4937 25.0643 39.0019 25.0643C39.6806 25.0643 40.3704 25.1521 41.0565 25.336C45.2883 26.47 47.8087 30.8354 46.6747 35.0674ZM51.8983 29.915C51.758 29.7035 51.7024 29.4962 51.7182 29.2428L51.8526 27.0863C51.9122 26.1292 51.4158 25.2693 50.5572 24.8425L48.6224 23.8807C48.3951 23.7676 48.2432 23.6157 48.1301 23.3884L47.1684 21.4538C46.7415 20.5951 45.8831 20.0983 44.9245 20.1582L42.7681 20.2927C42.5147 20.3088 42.3074 20.2529 42.0958 20.1125L40.2954 18.9178C39.4963 18.3876 38.5035 18.3875 37.7046 18.9178L35.9042 20.1125C35.6927 20.2529 35.4859 20.3088 35.2319 20.2927L33.0754 20.1583C32.1193 20.0989 31.2584 20.595 30.8315 21.4537L29.8697 23.3885C29.7567 23.6158 29.6048 23.7677 29.3775 23.8807L27.4427 24.8425C26.584 25.2694 26.0876 26.1293 26.1472 27.0864L26.2817 29.2428C26.2975 29.4963 26.2419 29.7036 26.1015 29.9152L24.907 31.7153C24.3767 32.5145 24.3767 33.5074 24.907 34.3064L26.1016 36.1067C26.242 36.3182 26.2976 36.5256 26.2818 36.779L26.1474 38.9354C26.0876 39.8926 26.5841 40.7524 27.4428 41.1793L29.3776 42.1411C29.6049 42.2542 29.7568 42.406 29.8698 42.6334L30.8316 44.5682C30.9642 44.8347 31.1385 45.0663 31.3443 45.2573L27.1855 54.1758C27.0722 54.4189 27.1265 54.7072 27.3206 54.8923C27.5148 55.0775 27.8054 55.1178 28.0428 54.9932L33.293 52.2322L34.5528 58.0288C34.6097 58.2908 34.8276 58.4874 35.0942 58.5171C35.1176 58.5197 35.1408 58.521 35.1638 58.521C35.4044 58.521 35.6266 58.3821 35.73 58.1602L39 51.1475L42.27 58.1601C42.3734 58.382 42.5955 58.521 42.8362 58.521C42.8592 58.521 42.8824 58.5197 42.9058 58.5171C43.1723 58.4873 43.3901 58.2908 43.4472 58.0287L44.707 52.2321L49.9572 54.9931C50.1947 55.1181 50.4852 55.0774 50.6794 54.8922C50.8734 54.7071 50.9279 54.4188 50.8144 54.1757L46.6554 45.2567C46.8614 45.0659 47.0358 44.8346 47.1683 44.568L48.1301 42.6332C48.2432 42.4059 48.3951 42.254 48.6224 42.141L50.5572 41.1792C51.4158 40.7523 51.9122 39.8925 51.8526 38.9353L51.7182 36.7789C51.7024 36.5254 51.758 36.3181 51.8984 36.1065L53.0929 34.3063C53.6233 33.5071 53.6233 32.5143 53.0929 31.7153L51.8983 29.915ZM35.3806 55.9517L34.3401 51.1638C34.2987 50.9731 34.1704 50.8126 33.9934 50.7301C33.8165 50.6475 33.6112 50.6525 33.4384 50.7433L29.1018 53.0238L32.4597 45.8225C32.6579 45.8613 32.864 45.8767 33.0754 45.8634L35.2319 45.7289C35.4858 45.7133 35.6926 45.7688 35.9042 45.9092L37.7045 47.1038C38.1041 47.3689 38.552 47.5015 39 47.5014C39.111 47.5014 39.2221 47.4932 39.3324 47.4769L35.3806 55.9517ZM48.8982 53.0239L44.5616 50.7434C44.3887 50.6526 44.1835 50.6476 44.0066 50.7302C43.8297 50.8127 43.7015 50.9731 43.66 51.1639L42.6194 55.9518L39.6896 49.6687L41.15 46.5369L42.0958 45.9093C42.3073 45.7689 42.5141 45.7127 42.768 45.7291L44.9246 45.8635C45.1358 45.8764 45.3417 45.8608 45.5398 45.8218L48.8982 53.0239ZM52.0514 33.6153L50.8569 35.4155C50.564 35.8567 50.4377 36.3282 50.4707 36.8568L50.6051 39.0132C50.6333 39.4665 50.4075 39.8578 50.0008 40.06L48.066 41.0218C47.5919 41.2576 47.2468 41.6027 47.0109 42.0768L46.049 44.0116C45.8469 44.4182 45.4558 44.6448 45.0024 44.616L42.8458 44.4815C42.3169 44.4481 41.8458 44.5749 41.4047 44.8677L39.6044 46.0623C39.2259 46.3133 38.7742 46.3135 38.3957 46.0623L36.5954 44.8678C36.1997 44.6051 35.7797 44.4764 35.3158 44.4764C35.2625 44.4764 35.2087 44.478 35.1541 44.4814L32.9977 44.6159C32.5444 44.6446 32.153 44.4182 31.9509 44.0115L30.989 42.0768C30.7533 41.6026 30.4082 41.2575 29.934 41.0217L27.9993 40.0598C27.5926 39.8577 27.3666 39.4664 27.395 39.0131L27.5294 36.8566C27.5622 36.3281 27.436 35.8567 27.1433 35.4155L25.9487 33.6151C25.6975 33.2367 25.6975 32.7849 25.9487 32.4064L27.1433 30.606C27.436 30.1649 27.5622 29.6934 27.5294 29.1649L27.3949 27.0085C27.3667 26.5551 27.5926 26.1638 27.9993 25.9617L29.934 24.9998C30.4082 24.764 30.7533 24.4189 30.9891 23.9448L31.951 22.01C32.1532 21.6034 32.5441 21.3781 32.9977 21.4057L35.1542 21.5401C35.6827 21.5731 36.154 21.4468 36.5953 21.154L38.3958 19.9593C38.7741 19.7082 39.2261 19.7082 39.6044 19.9593L41.4047 21.1539C41.846 21.4467 42.3171 21.5736 42.8459 21.5401L45.0023 21.4057C45.4562 21.377 45.8469 21.6034 46.0491 22.01L47.011 23.9448C47.2468 24.4189 47.5919 24.764 48.066 24.9999L50.0008 25.9618C50.4075 26.1639 50.6334 26.5552 50.6051 27.0084L50.4707 29.165C50.4377 29.6935 50.564 30.165 50.8569 30.606L52.0514 32.4064C52.3025 32.785 52.3025 33.2368 52.0514 33.6153ZM39.5656 26.8656C39.4626 26.6463 39.2422 26.5063 39 26.5063C38.7578 26.5063 38.5373 26.6463 38.4344 26.8656L36.7734 30.4007L32.8981 30.8878C32.6578 30.9181 32.4565 31.0845 32.3817 31.3149C32.3069 31.5452 32.3719 31.7982 32.5486 31.9639L35.3974 34.6359L34.6632 38.4721C34.6176 38.7101 34.7137 38.9528 34.9097 39.0953C35.1055 39.2376 35.3662 39.254 35.5785 39.1371L39 37.2532L42.4216 39.137C42.5158 39.1889 42.6196 39.2145 42.7229 39.2145C42.8525 39.2145 42.9815 39.1743 43.0904 39.0951C43.2864 38.9528 43.3824 38.71 43.3369 38.472L42.6026 34.6357L45.4515 31.9637C45.6282 31.798 45.6932 31.5451 45.6183 31.3147C45.5435 31.0843 45.3422 30.9179 45.1019 30.8877L41.2266 30.4006L39.5656 26.8656ZM41.4965 33.9595C41.3403 34.106 41.27 34.3225 41.3102 34.5328L41.859 37.4004L39.3014 35.9924C39.2076 35.9407 39.1037 35.9149 39 35.9149C38.8962 35.9149 38.7924 35.9407 38.6986 35.9924L36.1409 37.4004L36.6897 34.5328C36.7301 34.3225 36.6597 34.106 36.5034 33.9595L34.3739 31.9621L37.2708 31.598C37.4833 31.5713 37.6673 31.4375 37.7584 31.2436L39 28.601L40.2415 31.2435C40.3326 31.4375 40.5166 31.5712 40.7292 31.5979L43.6261 31.9621L41.4965 33.9595Z" fill="white"/>
</g>
<defs>
<clipPath id="clip0_99_1041">
<rect width="40" height="40" fill="white" transform="translate(19 18.521)"/>
</clipPath>
</defs>
</svg>
