<svg width="38" height="38" viewBox="0 0 38 38" fill="none" xmlns="http://www.w3.org/2000/svg">
<circle cx="19" cy="19" r="19" fill="#F05C61"/>
<g clip-path="url(#clip0_2055_4810)">
<path d="M24.7866 22.136C23.82 21.3093 22.8391 20.8085 21.8844 21.634L21.3144 22.1329C20.8973 22.495 20.1218 24.1871 17.1235 20.738C14.1258 17.2932 15.9096 16.7569 16.3274 16.3979L16.9005 15.8983C17.8502 15.071 17.4918 14.0295 16.8069 12.9575L16.3935 12.3081C15.7055 11.2385 14.9562 10.5361 14.004 11.3621L13.4895 11.8117C13.0687 12.1183 11.8923 13.1148 11.607 15.008C11.2636 17.2795 12.3469 19.8807 14.8288 22.7348C17.3076 25.5901 19.7347 27.0244 22.0337 26.9994C23.9443 26.9788 25.0982 25.9535 25.4591 25.5808L25.9754 25.1306C26.9251 24.3051 26.3351 23.4647 25.3679 22.6361L24.7866 22.136Z" fill="white"/>
</g>
<defs>
<clipPath id="clip0_2055_4810">
<rect width="16" height="16" fill="white" transform="translate(11 11)"/>
</clipPath>
</defs>
</svg>
