<svg width="38" height="38" viewBox="0 0 38 38" fill="none" xmlns="http://www.w3.org/2000/svg">
<circle cx="19" cy="19" r="19" fill="#F05C61"/>
<path d="M26.8583 14.1788L22.0059 19L26.8583 23.8212C26.946 23.6379 26.9993 23.4352 26.9993 23.2188V14.7813C26.9993 14.5648 26.946 14.3621 26.8583 14.1788Z" fill="white"/>
<path d="M25.5947 13.375H12.4072C12.1907 13.375 11.988 13.4282 11.8047 13.5159L18.0067 19.6867C18.555 20.235 19.4468 20.235 19.9952 19.6867L26.1971 13.5159C26.0138 13.4282 25.8111 13.375 25.5947 13.375Z" fill="white"/>
<path d="M11.1409 14.1788C11.0532 14.3621 11 14.5648 11 14.7813V23.2188C11 23.4352 11.0532 23.6379 11.1409 23.8212L15.9934 19L11.1409 14.1788Z" fill="white"/>
<path d="M21.3447 19.6628L20.658 20.3495C19.7443 21.2632 18.2575 21.2632 17.3438 20.3495L16.6572 19.6628L11.8047 24.4841C11.988 24.5718 12.1907 24.625 12.4072 24.625H25.5947C25.8111 24.625 26.0138 24.5718 26.1971 24.4841L21.3447 19.6628Z" fill="white"/>
</svg>
