<svg width="38" height="38" viewBox="0 0 38 38" fill="none" xmlns="http://www.w3.org/2000/svg">
<circle cx="19" cy="19" r="19" fill="#F05C61"/>
<g clip-path="url(#clip0_2055_4836)">
<path d="M19 10C15.2785 10 12.25 13.0495 12.25 16.7987C12.25 22.126 18.3655 27.6265 18.6258 27.8575C18.733 27.9527 18.8665 28 19 28C19.1335 28 19.267 27.9528 19.3742 27.8582C19.6345 27.6265 25.75 22.126 25.75 16.7987C25.75 13.0495 22.7215 10 19 10ZM19 20.5C16.9323 20.5 15.25 18.8177 15.25 16.75C15.25 14.6823 16.9323 13 19 13C21.0677 13 22.75 14.6823 22.75 16.75C22.75 18.8177 21.0677 20.5 19 20.5Z" fill="white"/>
</g>
<defs>
<clipPath id="clip0_2055_4836">
<rect width="18" height="18" fill="white" transform="translate(10 10)"/>
</clipPath>
</defs>
</svg>
