<svg width="30" height="30" viewBox="0 0 30 30" fill="none" xmlns="http://www.w3.org/2000/svg">
<path fill-rule="evenodd" clip-rule="evenodd" d="M15 30C23.2843 30 30 23.2843 30 15C30 6.71573 23.2843 0 15 0C6.71573 0 0 6.71573 0 15C0 23.2843 6.71573 30 15 30ZM16.397 16.801V24.997H13.085V16.795H10.332V13.586H13.079V11.231C13.079 8.49205 14.757 7.00005 17.201 7.00005C18.025 6.99684 18.8486 7.03924 19.668 7.12705V9.98805H17.984C16.655 9.98805 16.397 10.622 16.397 11.548V13.592H19.573L19.162 16.801H16.397Z" fill="#698C5C"/>
</svg>
