<svg width="156" height="40" viewBox="0 0 156 40" fill="none" xmlns="http://www.w3.org/2000/svg">
<path d="M27.5312 20.1089V4.41853C27.5312 2.37556 28.6354 1.27631 30.6875 1.27631H34.8125C36.8646 1.27631 37.9687 2.37556 37.9687 4.41853V20.1089C37.9687 22.1519 36.8646 23.2511 34.8125 23.2511H30.6875C28.6354 23.2408 27.5312 22.1519 27.5312 20.1089Z" fill="#F2B737"/>
<path d="M41.125 20.1089V4.41853C41.125 2.37556 42.2292 1.27631 44.2813 1.27631H57.0208C59.0729 1.27631 60.1771 2.37556 60.1771 4.41853V7.94445C60.1771 9.98742 59.2083 11.0867 57.625 11.0867H56.2917V12.8185C56.2917 14.8615 55.5104 15.9608 53.4896 15.9608H51.5729V20.1193C51.5729 22.1622 50.4688 23.2615 48.4167 23.2615H44.2917C42.2292 23.2407 41.125 22.1519 41.125 20.1089Z" fill="#658A61"/>
<path d="M62.6768 20.1089V4.41853C62.6768 2.37556 63.7809 1.27631 65.833 1.27631H78.5726C80.6247 1.27631 81.7288 2.37556 81.7288 4.41853V7.94445C81.7288 9.98742 80.7601 11.0867 79.1768 11.0867H77.8434V12.8185C77.8434 14.8615 77.0622 15.9608 75.0413 15.9608H73.1247V20.1193C73.1247 22.1622 72.0205 23.2615 69.9684 23.2615H65.8434C63.7809 23.2407 62.6768 22.1519 62.6768 20.1089Z" fill="#76C4D6"/>
<path d="M14.0316 37.3341H6.17741L4.69824 39.7089H3.63574L9.61491 30.1785H10.6774L16.6566 39.7089H15.5212L14.0316 37.3341ZM13.5524 36.5667L10.1149 31.06H10.0837L6.64616 36.5667H13.5524Z" fill="#343434"/>
<path d="M27.4688 34.9593C27.4688 32.2111 29.4583 30.0022 33.1875 30.0022C37.1146 30.0022 38.5104 32.2422 38.5104 33.6941V33.7978H37.6042V33.7356C37.6042 32.5948 36.4271 30.8422 33.2083 30.8422C30.0937 30.8422 28.4271 32.5533 28.4271 34.9593C28.4271 37.0333 29.7813 39.0452 33.2708 39.0452C36.2813 39.0452 37.6771 37.5726 37.6771 36.1622V36.1H38.5833V36.183C38.5833 37.8941 36.9583 39.8748 33.2708 39.8748C29.0104 39.8852 27.4688 37.3963 27.4688 34.9593Z" fill="#343434"/>
<path d="M59.7923 37.3341H51.9382L50.459 39.7089H49.3965L55.3757 30.1785H56.4277L62.4069 39.7089H61.2715L59.7923 37.3341ZM59.3132 36.5667L55.8757 31.06H55.8444L52.4069 36.5667H59.3132Z" fill="#343434"/>
<path d="M74.2188 30.1785H78.6875C83.0833 30.1785 84.4583 32.4082 84.4583 34.9385C84.4583 37.9459 82.9271 39.6985 79.0729 39.6985H74.2188V30.1785ZM79.0625 38.8689C82.2292 38.8689 83.5 37.5207 83.5 34.9489C83.5 32.7607 82.3646 31.0289 78.6875 31.0289H75.1667V38.8689H79.0625Z" fill="#343434"/>
<path d="M96.5312 30.1785H105.198V31.0185H97.4688V34.5237H103.74V35.3015H97.4688V38.8689H105.344V39.7089H96.5312V30.1785Z" fill="#343434"/>
<path d="M117.312 30.1785H118.896L123.583 38.6096H123.615L128.281 30.1785H129.854V39.7089H128.906V30.8733H128.896L123.948 39.7089H123.208L118.25 30.8733H118.24V39.7089H117.323V30.1785H117.312Z" fill="#343434"/>
<path d="M147.313 35.7578L141.553 30.1785H142.917L147.824 34.9385H147.855L152.74 30.1785H154.053L148.282 35.7578V39.7089H147.324V35.7578H147.313Z" fill="#343434"/>
<path d="M24.25 24.1015H21.75C21.2708 24.1015 20.8542 23.8007 20.6979 23.3548L20.5521 23.0956C20.1146 22.4422 20.1146 22.0067 18.9583 22.6289C16.9792 23.6867 14.7604 24.6511 12.2292 24.6511C5.40625 24.6511 0 19.497 0 12.3726C0 5.27926 5.51042 0.125183 12.9687 0.125183C18.1979 0.125183 22.4375 2.61407 24.5312 6.5237C24.8542 7.13555 24.5625 7.88222 23.9062 8.1L15.1042 11.0452C14.7604 11.1593 14.3854 11.0867 14.0833 10.8793C13.7708 10.6615 13.375 10.5267 12.9583 10.5267C11.9167 10.5267 11.1146 11.2941 11.1146 12.3622C11.1146 13.4304 11.9167 14.2393 12.9583 14.2393C13.6875 14.2393 14.375 13.8763 14.6354 13.1089C14.7917 12.663 15.2083 12.3726 15.6771 12.3726H24.2396C24.8542 12.3726 25.3542 12.8704 25.3542 13.4822V23.0022C25.3646 23.6037 24.8646 24.1015 24.25 24.1015Z" fill="#F1754D"/>
<path d="M144.542 1.17261H137.365C135.302 1.17261 134.198 2.27187 134.198 4.3252V20.0882C134.198 22.1415 135.292 23.2408 137.365 23.2408H144.542C152.823 23.2511 155.761 17.5371 155.761 12.1756C155.771 6.81409 152.834 1.17261 144.542 1.17261ZM144.917 13.9178H143.844C143.532 13.9178 143.375 13.7519 143.375 13.4511V11.1074C143.375 10.8067 143.542 10.6408 143.844 10.6408H144.917C146.146 10.6408 146.584 11.4808 146.584 12.2793C146.584 13.0674 146.146 13.9178 144.917 13.9178Z" fill="#ED84AF"/>
<path d="M131.5 20.0882L128.188 16.3859C128.115 16.303 128.125 16.1682 128.229 16.1059C130.167 14.8096 131.542 12.6526 131.542 9.7489C131.542 4.65705 128.604 1.17261 120.323 1.17261H113.334C111.479 1.17261 109.979 2.66594 109.979 4.51187V19.9015C109.979 21.7474 111.479 23.2408 113.334 23.2408H118.063C118.542 23.2408 118.927 22.8571 118.927 22.38V17.7445C118.927 17.3296 119.271 16.9874 119.688 16.9874C120.105 16.9874 120.448 17.3296 120.448 17.7445V22.4837C120.448 22.8985 120.782 23.2304 121.198 23.2304H130.313C132.511 23.2408 132.834 21.5815 131.5 20.0882ZM120.177 10.983H119.282C119.021 10.983 118.886 10.8482 118.886 10.5889V8.61853C118.886 8.35927 119.021 8.22446 119.282 8.22446H120.177C121.219 8.22446 121.584 8.92964 121.584 9.60372C121.584 10.2674 121.219 10.983 120.177 10.983Z" fill="#324079"/>
<path d="M95.6149 0.633331C88.5837 0.633331 83.3857 5.48667 83.3857 12.1756C83.3857 18.8956 88.5837 23.7489 95.6149 23.7489C102.646 23.7489 107.844 18.8956 107.844 12.1756C107.834 5.48667 102.646 0.633331 95.6149 0.633331ZM95.6149 13.9281C94.5524 13.9281 93.7712 13.1919 93.7712 12.1859C93.7712 11.18 94.5524 10.4437 95.6149 10.4437C96.6774 10.4437 97.4587 11.18 97.4587 12.1859C97.4482 13.2022 96.667 13.9281 95.6149 13.9281Z" fill="#F1A49B"/>
</svg>
