<svg width="201" height="52" viewBox="0 0 201 52" fill="none" xmlns="http://www.w3.org/2000/svg">
<path d="M35.5151 25.8745V5.55835C35.5151 2.91309 36.9395 1.48975 39.5867 1.48975H44.9079C47.5551 1.48975 48.9795 2.91309 48.9795 5.55835V25.8745C48.9795 28.5198 47.5551 29.9431 44.9079 29.9431H39.5867C36.9395 29.9297 35.5151 28.5198 35.5151 25.8745Z" fill="#F2B737"/>
<path d="M53.0513 25.8745V5.55835C53.0513 2.91308 54.4757 1.48975 57.1228 1.48975H73.5569C76.2041 1.48975 77.6285 2.91308 77.6285 5.55835V10.1238C77.6285 12.769 76.3788 14.1924 74.3363 14.1924H72.6163V16.4348C72.6163 19.0801 71.6085 20.5034 69.0016 20.5034H66.5291V25.888C66.5291 28.5332 65.1047 29.9566 62.4575 29.9566H57.1363C54.4756 29.9297 53.0513 28.5198 53.0513 25.8745Z" fill="#658A61"/>
<path d="M80.8535 25.8745V5.55835C80.8535 2.91308 82.2779 1.48975 84.9251 1.48975H101.359C104.006 1.48975 105.431 2.91308 105.431 5.55835V10.1238C105.431 12.769 104.181 14.1924 102.139 14.1924H100.419V16.4348C100.419 19.0801 99.4107 20.5034 96.8038 20.5034H94.3313V25.888C94.3313 28.5332 92.907 29.9566 90.2598 29.9566H84.9385C82.2779 29.9297 80.8535 28.5198 80.8535 25.8745Z" fill="#76C4D6"/>
<path d="M18.1001 48.1787H7.9682L6.06008 51.2537H4.68945L12.4026 38.9136H13.7732L21.4863 51.2537H20.0216L18.1001 48.1787ZM17.482 47.1851L13.0476 40.0549H13.0073L8.57289 47.1851H17.482Z" fill="white"/>
<path d="M35.4346 45.104C35.4346 41.5457 38.0011 38.6855 42.8118 38.6855C47.8777 38.6855 49.6783 41.5859 49.6783 43.4658V43.6001H48.5093V43.5195C48.5093 42.0425 46.9908 39.7732 42.8386 39.7732C38.8208 39.7732 36.6708 41.9888 36.6708 45.104C36.6708 47.7896 38.4177 50.3945 42.9193 50.3945C46.8027 50.3945 48.6033 48.4878 48.6033 46.6616V46.5811H49.7724V46.6885C49.7724 48.9041 47.6761 51.4688 42.9193 51.4688C37.4233 51.4822 35.4346 48.2595 35.4346 45.104Z" fill="white"/>
<path d="M77.1308 48.1787H66.999L65.0908 51.2537H63.7202L71.4333 38.9136H72.7905L80.5037 51.2537H79.039L77.1308 48.1787ZM76.5127 47.1851L72.0783 40.0549H72.038L67.6037 47.1851H76.5127Z" fill="white"/>
<path d="M95.7422 38.9136H101.507C107.178 38.9136 108.951 41.8005 108.951 45.0769C108.951 48.9709 106.976 51.2402 102.004 51.2402H95.7422V38.9136ZM101.991 50.166C106.076 50.166 107.715 48.4204 107.715 45.0903C107.715 42.2571 106.25 40.0147 101.507 40.0147H96.965V50.166H101.991Z" fill="white"/>
<path d="M124.525 38.9136H135.705V40.0012H125.734V44.5398H133.824V45.5469H125.734V50.166H135.893V51.2537H124.525V38.9136Z" fill="white"/>
<path d="M151.333 38.9136H153.376L159.422 49.8303H159.463L165.483 38.9136H167.512V51.2537H166.289V39.8132H166.276L159.893 51.2537H158.939L152.542 39.8132H152.529V51.2537H151.346V38.9136H151.333Z" fill="white"/>
<path d="M190.033 46.1377L182.602 38.9136H184.362L190.691 45.0769H190.732L197.034 38.9136H198.727L191.283 46.1377V51.2537H190.046V46.1377H190.033Z" fill="white"/>
<path d="M31.2825 31.0449H28.0575C27.4394 31.0449 26.9019 30.6555 26.7003 30.0781L26.5122 29.7424C25.9478 28.8965 25.9478 28.3325 24.4562 29.1382C21.9031 30.5078 19.0409 31.7566 15.7756 31.7566C6.97406 31.7566 0 25.083 0 15.8582C0 6.67359 7.10844 0 16.7297 0C23.4753 0 28.9444 3.22266 31.6453 8.28492C32.0619 9.07715 31.6856 10.0439 30.8391 10.3259L19.4844 14.1394C19.0409 14.2871 18.5572 14.1931 18.1675 13.9246C17.7644 13.6426 17.2538 13.468 16.7163 13.468C15.3725 13.468 14.3378 14.4617 14.3378 15.8447C14.3378 17.2278 15.3725 18.2752 16.7163 18.2752C17.6569 18.2752 18.5437 17.8052 18.8797 16.8115C19.0812 16.2341 19.6187 15.8582 20.2234 15.8582H31.2691C32.0619 15.8582 32.7069 16.5027 32.7069 17.2949V29.6216C32.7203 30.4004 32.0753 31.0449 31.2825 31.0449Z" fill="#F1754D"/>
<path d="M186.459 1.35596H177.2C174.54 1.35596 173.115 2.7793 173.115 5.43799V25.8482C173.115 28.5069 174.526 29.9302 177.2 29.9302H186.459C197.141 29.9436 200.931 22.5449 200.931 15.6028C200.944 8.66065 197.155 1.35596 186.459 1.35596ZM186.942 17.8587H185.558C185.155 17.8587 184.954 17.6438 184.954 17.2544V14.2197C184.954 13.8303 185.169 13.6155 185.558 13.6155H186.942C188.528 13.6155 189.092 14.7031 189.092 15.7371C189.092 16.7576 188.528 17.8587 186.942 17.8587Z" fill="#ED84AF"/>
<path d="M169.635 25.8482L165.362 21.0545C165.268 20.947 165.281 20.7725 165.416 20.6919C167.915 19.0134 169.689 16.2205 169.689 12.4607C169.689 5.86768 165.899 1.35596 155.216 1.35596H146.2C143.808 1.35596 141.873 3.28955 141.873 5.67969V25.6065C141.873 27.9966 143.808 29.9302 146.2 29.9302H152.301C152.919 29.9302 153.416 29.4334 153.416 28.8157V22.8135C153.416 22.2764 153.859 21.8333 154.397 21.8333C154.934 21.8333 155.378 22.2764 155.378 22.8135V28.95C155.378 29.4871 155.808 29.9168 156.345 29.9168H168.103C170.938 29.9302 171.355 27.7818 169.635 25.8482ZM155.028 14.0586H153.873C153.537 14.0586 153.362 13.884 153.362 13.5483V10.9971C153.362 10.6614 153.537 10.4868 153.873 10.4868H155.028C156.372 10.4868 156.842 11.3999 156.842 12.2727C156.842 13.1321 156.372 14.0586 155.028 14.0586Z" fill="#304078"/>
<path d="M123.343 0.657715C114.273 0.657715 107.567 6.9419 107.567 15.6028C107.567 24.304 114.273 30.5882 123.343 30.5882C132.413 30.5882 139.119 24.304 139.119 15.6028C139.105 6.9419 132.413 0.657715 123.343 0.657715ZM123.343 17.8721C121.972 17.8721 120.965 16.9187 120.965 15.6162C120.965 14.3137 121.972 13.3604 123.343 13.3604C124.714 13.3604 125.721 14.3137 125.721 15.6162C125.708 16.9321 124.7 17.8721 123.343 17.8721Z" fill="#F1A49B"/>
</svg>
